<mxfile host="app.diagrams.net" modified="2023-10-02T14:55:07.853Z" agent="Mozilla/5.0 (Windows NT 10.0; Win64; x64) AppleWebKit/537.36 (KHTML, like Gecko) Chrome/117.0.0.0 Safari/537.36" etag="SVEc6JCk64Y58Q6QEBty" version="21.8.2" type="github">
  <diagram id="ikbdHE1ufYaPrwC_6rA9" name="Страница — 1">
    <mxGraphModel dx="1000" dy="1708" grid="1" gridSize="10" guides="1" tooltips="1" connect="1" arrows="1" fold="1" page="1" pageScale="1" pageWidth="827" pageHeight="1169" math="0" shadow="0">
      <root>
        <mxCell id="0" />
        <mxCell id="1" parent="0" />
        <mxCell id="TBtlL103MgdBufVst8w7-46" value="" style="rounded=1;whiteSpace=wrap;html=1;fillColor=#dae8fc;strokeColor=#6c8ebf;" parent="1" vertex="1">
          <mxGeometry x="230" y="10" width="560" height="760" as="geometry" />
        </mxCell>
        <mxCell id="TBtlL103MgdBufVst8w7-2" value="Незарегистрированный&lt;br&gt;пользователь" style="shape=umlActor;verticalLabelPosition=bottom;verticalAlign=top;html=1;outlineConnect=0;" parent="1" vertex="1">
          <mxGeometry x="115" y="190" width="30" height="60" as="geometry" />
        </mxCell>
        <mxCell id="TBtlL103MgdBufVst8w7-3" value="Зарегистрированный&lt;br&gt;пользователь" style="shape=umlActor;verticalLabelPosition=bottom;verticalAlign=top;html=1;outlineConnect=0;" parent="1" vertex="1">
          <mxGeometry x="115" y="310" width="30" height="60" as="geometry" />
        </mxCell>
        <mxCell id="TBtlL103MgdBufVst8w7-4" value="Зарегистрироваться" style="ellipse;whiteSpace=wrap;html=1;" parent="1" vertex="1">
          <mxGeometry x="280" y="110" width="120" height="50" as="geometry" />
        </mxCell>
        <mxCell id="TBtlL103MgdBufVst8w7-5" value="" style="endArrow=none;html=1;rounded=0;exitX=0.5;exitY=0.5;exitDx=0;exitDy=0;exitPerimeter=0;entryX=0;entryY=0.5;entryDx=0;entryDy=0;" parent="1" source="TBtlL103MgdBufVst8w7-2" target="TBtlL103MgdBufVst8w7-4" edge="1">
          <mxGeometry width="50" height="50" relative="1" as="geometry">
            <mxPoint x="470" y="380" as="sourcePoint" />
            <mxPoint x="309.79999999999995" y="220" as="targetPoint" />
            <Array as="points">
              <mxPoint x="250" y="220" />
              <mxPoint x="250" y="135" />
            </Array>
          </mxGeometry>
        </mxCell>
        <mxCell id="TBtlL103MgdBufVst8w7-6" value="Авторизоваться&lt;br&gt;в системе" style="ellipse;whiteSpace=wrap;html=1;" parent="1" vertex="1">
          <mxGeometry x="280" y="195" width="120" height="50" as="geometry" />
        </mxCell>
        <mxCell id="TBtlL103MgdBufVst8w7-7" value="Просмотреть товар" style="ellipse;whiteSpace=wrap;html=1;" parent="1" vertex="1">
          <mxGeometry x="280" y="260" width="120" height="50" as="geometry" />
        </mxCell>
        <mxCell id="TBtlL103MgdBufVst8w7-8" value="Сделать заказ" style="ellipse;whiteSpace=wrap;html=1;" parent="1" vertex="1">
          <mxGeometry x="280" y="330" width="120" height="50" as="geometry" />
        </mxCell>
        <mxCell id="TBtlL103MgdBufVst8w7-9" value="Отменить заказ" style="ellipse;whiteSpace=wrap;html=1;" parent="1" vertex="1">
          <mxGeometry x="280" y="400" width="120" height="50" as="geometry" />
        </mxCell>
        <mxCell id="TBtlL103MgdBufVst8w7-10" value="" style="endArrow=none;html=1;rounded=0;exitX=0.5;exitY=0.5;exitDx=0;exitDy=0;exitPerimeter=0;entryX=0;entryY=0.5;entryDx=0;entryDy=0;" parent="1" source="TBtlL103MgdBufVst8w7-3" target="TBtlL103MgdBufVst8w7-6" edge="1">
          <mxGeometry width="50" height="50" relative="1" as="geometry">
            <mxPoint x="470" y="380" as="sourcePoint" />
            <mxPoint x="520" y="330" as="targetPoint" />
            <Array as="points">
              <mxPoint x="260" y="340" />
              <mxPoint x="260" y="220" />
            </Array>
          </mxGeometry>
        </mxCell>
        <mxCell id="TBtlL103MgdBufVst8w7-11" value="" style="endArrow=none;html=1;rounded=0;exitX=0.5;exitY=0.5;exitDx=0;exitDy=0;exitPerimeter=0;" parent="1" source="TBtlL103MgdBufVst8w7-2" edge="1">
          <mxGeometry width="50" height="50" relative="1" as="geometry">
            <mxPoint x="470" y="380" as="sourcePoint" />
            <mxPoint x="250" y="220" as="targetPoint" />
          </mxGeometry>
        </mxCell>
        <mxCell id="TBtlL103MgdBufVst8w7-12" value="" style="endArrow=none;html=1;rounded=0;exitX=0;exitY=0.5;exitDx=0;exitDy=0;" parent="1" source="TBtlL103MgdBufVst8w7-7" edge="1">
          <mxGeometry width="50" height="50" relative="1" as="geometry">
            <mxPoint x="470" y="380" as="sourcePoint" />
            <mxPoint x="260" y="285" as="targetPoint" />
          </mxGeometry>
        </mxCell>
        <mxCell id="TBtlL103MgdBufVst8w7-13" value="" style="endArrow=none;html=1;rounded=0;exitX=0;exitY=0.5;exitDx=0;exitDy=0;entryX=0.5;entryY=0.5;entryDx=0;entryDy=0;entryPerimeter=0;" parent="1" source="TBtlL103MgdBufVst8w7-9" target="TBtlL103MgdBufVst8w7-3" edge="1">
          <mxGeometry width="50" height="50" relative="1" as="geometry">
            <mxPoint x="470" y="380" as="sourcePoint" />
            <mxPoint x="520" y="330" as="targetPoint" />
            <Array as="points">
              <mxPoint x="260" y="425" />
              <mxPoint x="260" y="340" />
            </Array>
          </mxGeometry>
        </mxCell>
        <mxCell id="TBtlL103MgdBufVst8w7-14" value="" style="endArrow=none;html=1;rounded=0;exitX=0;exitY=0.5;exitDx=0;exitDy=0;" parent="1" edge="1">
          <mxGeometry width="50" height="50" relative="1" as="geometry">
            <mxPoint x="280" y="354.8" as="sourcePoint" />
            <mxPoint x="260" y="354.8" as="targetPoint" />
          </mxGeometry>
        </mxCell>
        <mxCell id="TBtlL103MgdBufVst8w7-15" value="Ввести email" style="ellipse;whiteSpace=wrap;html=1;" parent="1" vertex="1">
          <mxGeometry x="450" y="20" width="120" height="50" as="geometry" />
        </mxCell>
        <mxCell id="TBtlL103MgdBufVst8w7-16" value="Придумать пароль" style="ellipse;whiteSpace=wrap;html=1;" parent="1" vertex="1">
          <mxGeometry x="450" y="90" width="120" height="50" as="geometry" />
        </mxCell>
        <mxCell id="TBtlL103MgdBufVst8w7-17" value="" style="endArrow=none;html=1;rounded=0;exitX=1;exitY=0.5;exitDx=0;exitDy=0;entryX=0;entryY=0.5;entryDx=0;entryDy=0;" parent="1" source="TBtlL103MgdBufVst8w7-4" target="TBtlL103MgdBufVst8w7-16" edge="1">
          <mxGeometry width="50" height="50" relative="1" as="geometry">
            <mxPoint x="630" y="300" as="sourcePoint" />
            <mxPoint x="440" y="135" as="targetPoint" />
            <Array as="points">
              <mxPoint x="440" y="135" />
              <mxPoint x="440" y="115" />
            </Array>
          </mxGeometry>
        </mxCell>
        <mxCell id="TBtlL103MgdBufVst8w7-18" value="" style="endArrow=none;html=1;rounded=0;entryX=0;entryY=0.5;entryDx=0;entryDy=0;" parent="1" target="TBtlL103MgdBufVst8w7-15" edge="1">
          <mxGeometry width="50" height="50" relative="1" as="geometry">
            <mxPoint x="440" y="115" as="sourcePoint" />
            <mxPoint x="490" y="65" as="targetPoint" />
            <Array as="points">
              <mxPoint x="440" y="45" />
            </Array>
          </mxGeometry>
        </mxCell>
        <mxCell id="TBtlL103MgdBufVst8w7-19" value="Ввести email" style="ellipse;whiteSpace=wrap;html=1;" parent="1" vertex="1">
          <mxGeometry x="450" y="160" width="120" height="50" as="geometry" />
        </mxCell>
        <mxCell id="TBtlL103MgdBufVst8w7-20" value="Ввести пароль" style="ellipse;whiteSpace=wrap;html=1;" parent="1" vertex="1">
          <mxGeometry x="450" y="230" width="120" height="50" as="geometry" />
        </mxCell>
        <mxCell id="TBtlL103MgdBufVst8w7-21" value="" style="endArrow=none;html=1;rounded=0;exitX=1;exitY=0.5;exitDx=0;exitDy=0;entryX=0;entryY=0.5;entryDx=0;entryDy=0;" parent="1" source="TBtlL103MgdBufVst8w7-6" target="TBtlL103MgdBufVst8w7-19" edge="1">
          <mxGeometry width="50" height="50" relative="1" as="geometry">
            <mxPoint x="630" y="300" as="sourcePoint" />
            <mxPoint x="680" y="250" as="targetPoint" />
            <Array as="points">
              <mxPoint x="440" y="220" />
              <mxPoint x="440" y="185" />
            </Array>
          </mxGeometry>
        </mxCell>
        <mxCell id="TBtlL103MgdBufVst8w7-22" value="" style="endArrow=none;html=1;rounded=0;entryX=0;entryY=0.5;entryDx=0;entryDy=0;" parent="1" target="TBtlL103MgdBufVst8w7-20" edge="1">
          <mxGeometry width="50" height="50" relative="1" as="geometry">
            <mxPoint x="440" y="220" as="sourcePoint" />
            <mxPoint x="680" y="250" as="targetPoint" />
            <Array as="points">
              <mxPoint x="440" y="255" />
            </Array>
          </mxGeometry>
        </mxCell>
        <mxCell id="TBtlL103MgdBufVst8w7-23" value="Выбрать модели&lt;br&gt;одежды" style="ellipse;whiteSpace=wrap;html=1;" parent="1" vertex="1">
          <mxGeometry x="630" y="295" width="120" height="50" as="geometry" />
        </mxCell>
        <mxCell id="TBtlL103MgdBufVst8w7-24" value="Выбрать количество&lt;br&gt;моделей" style="ellipse;whiteSpace=wrap;html=1;" parent="1" vertex="1">
          <mxGeometry x="630" y="365" width="130" height="50" as="geometry" />
        </mxCell>
        <mxCell id="TBtlL103MgdBufVst8w7-25" value="" style="endArrow=none;html=1;rounded=0;exitX=1;exitY=0.5;exitDx=0;exitDy=0;entryX=0;entryY=0.5;entryDx=0;entryDy=0;" parent="1" source="TBtlL103MgdBufVst8w7-8" target="TBtlL103MgdBufVst8w7-23" edge="1">
          <mxGeometry width="50" height="50" relative="1" as="geometry">
            <mxPoint x="670" y="410" as="sourcePoint" />
            <mxPoint x="720" y="360" as="targetPoint" />
            <Array as="points">
              <mxPoint x="600" y="355" />
              <mxPoint x="600" y="320" />
            </Array>
          </mxGeometry>
        </mxCell>
        <mxCell id="TBtlL103MgdBufVst8w7-26" value="" style="endArrow=none;html=1;rounded=0;entryX=0;entryY=0.5;entryDx=0;entryDy=0;" parent="1" target="TBtlL103MgdBufVst8w7-24" edge="1">
          <mxGeometry width="50" height="50" relative="1" as="geometry">
            <mxPoint x="600" y="350" as="sourcePoint" />
            <mxPoint x="720" y="360" as="targetPoint" />
            <Array as="points">
              <mxPoint x="600" y="390" />
            </Array>
          </mxGeometry>
        </mxCell>
        <mxCell id="TBtlL103MgdBufVst8w7-27" value="Выбрать дату&lt;br&gt;доставки" style="ellipse;whiteSpace=wrap;html=1;" parent="1" vertex="1">
          <mxGeometry x="630" y="440" width="120" height="50" as="geometry" />
        </mxCell>
        <mxCell id="TBtlL103MgdBufVst8w7-28" value="" style="endArrow=none;html=1;rounded=0;exitX=0;exitY=0.5;exitDx=0;exitDy=0;" parent="1" source="TBtlL103MgdBufVst8w7-27" edge="1">
          <mxGeometry width="50" height="50" relative="1" as="geometry">
            <mxPoint x="690" y="410" as="sourcePoint" />
            <mxPoint x="600" y="390" as="targetPoint" />
            <Array as="points">
              <mxPoint x="600" y="465" />
            </Array>
          </mxGeometry>
        </mxCell>
        <mxCell id="TBtlL103MgdBufVst8w7-29" value="Сотрудник" style="shape=umlActor;verticalLabelPosition=bottom;verticalAlign=top;html=1;outlineConnect=0;" parent="1" vertex="1">
          <mxGeometry x="115" y="470" width="30" height="60" as="geometry" />
        </mxCell>
        <mxCell id="TBtlL103MgdBufVst8w7-31" value="Посмотреть&lt;br&gt;информацию&lt;br&gt;о заказе" style="ellipse;whiteSpace=wrap;html=1;" parent="1" vertex="1">
          <mxGeometry x="280" y="475" width="120" height="50" as="geometry" />
        </mxCell>
        <mxCell id="TBtlL103MgdBufVst8w7-33" value="Поменять статус&lt;br&gt;заказа" style="ellipse;whiteSpace=wrap;html=1;" parent="1" vertex="1">
          <mxGeometry x="280" y="545" width="120" height="50" as="geometry" />
        </mxCell>
        <mxCell id="TBtlL103MgdBufVst8w7-36" value="" style="endArrow=none;html=1;rounded=0;exitX=0.5;exitY=0.5;exitDx=0;exitDy=0;exitPerimeter=0;" parent="1" source="TBtlL103MgdBufVst8w7-29" edge="1">
          <mxGeometry width="50" height="50" relative="1" as="geometry">
            <mxPoint x="600" y="450" as="sourcePoint" />
            <mxPoint x="260" y="500" as="targetPoint" />
          </mxGeometry>
        </mxCell>
        <mxCell id="TBtlL103MgdBufVst8w7-37" value="Функциональная диаграмма (Use case)" style="text;html=1;strokeColor=none;fillColor=none;align=center;verticalAlign=middle;whiteSpace=wrap;rounded=0;" parent="1" vertex="1">
          <mxGeometry x="360" y="810" width="250" height="30" as="geometry" />
        </mxCell>
        <mxCell id="TBtlL103MgdBufVst8w7-38" value="" style="endArrow=none;html=1;rounded=0;entryX=0;entryY=0.5;entryDx=0;entryDy=0;exitX=0;exitY=0.5;exitDx=0;exitDy=0;" parent="1" source="TBtlL103MgdBufVst8w7-33" edge="1">
          <mxGeometry width="50" height="50" relative="1" as="geometry">
            <mxPoint x="260" y="590" as="sourcePoint" />
            <mxPoint x="280" y="500" as="targetPoint" />
            <Array as="points">
              <mxPoint x="260" y="570" />
              <mxPoint x="260" y="500" />
            </Array>
          </mxGeometry>
        </mxCell>
        <mxCell id="TBtlL103MgdBufVst8w7-39" value="Поменять статус&lt;br&gt;доставки" style="ellipse;whiteSpace=wrap;html=1;" parent="1" vertex="1">
          <mxGeometry x="280" y="690" width="120" height="50" as="geometry" />
        </mxCell>
        <mxCell id="TBtlL103MgdBufVst8w7-40" value="Посмотреть&lt;br&gt;информацию&lt;br&gt;о доставке" style="ellipse;whiteSpace=wrap;html=1;" parent="1" vertex="1">
          <mxGeometry x="280" y="620" width="120" height="50" as="geometry" />
        </mxCell>
        <mxCell id="TBtlL103MgdBufVst8w7-41" value="" style="endArrow=none;html=1;rounded=0;exitX=0;exitY=0.5;exitDx=0;exitDy=0;" parent="1" source="TBtlL103MgdBufVst8w7-39" edge="1">
          <mxGeometry width="50" height="50" relative="1" as="geometry">
            <mxPoint x="480" y="580" as="sourcePoint" />
            <mxPoint x="260" y="570" as="targetPoint" />
            <Array as="points">
              <mxPoint x="260" y="715" />
            </Array>
          </mxGeometry>
        </mxCell>
        <mxCell id="TBtlL103MgdBufVst8w7-42" value="" style="endArrow=none;html=1;rounded=0;entryX=0;entryY=0.5;entryDx=0;entryDy=0;" parent="1" target="TBtlL103MgdBufVst8w7-40" edge="1">
          <mxGeometry width="50" height="50" relative="1" as="geometry">
            <mxPoint x="260" y="645" as="sourcePoint" />
            <mxPoint x="530" y="530" as="targetPoint" />
          </mxGeometry>
        </mxCell>
        <mxCell id="TBtlL103MgdBufVst8w7-43" value="Поставщик" style="shape=umlActor;verticalLabelPosition=bottom;verticalAlign=top;html=1;outlineConnect=0;" parent="1" vertex="1">
          <mxGeometry x="110" y="15" width="30" height="60" as="geometry" />
        </mxCell>
        <mxCell id="TBtlL103MgdBufVst8w7-44" value="Поставляет товар" style="ellipse;whiteSpace=wrap;html=1;" parent="1" vertex="1">
          <mxGeometry x="130" y="-10" width="120" height="50" as="geometry" />
        </mxCell>
        <mxCell id="TBtlL103MgdBufVst8w7-45" value="" style="endArrow=none;html=1;rounded=0;exitX=0.5;exitY=0.5;exitDx=0;exitDy=0;exitPerimeter=0;entryX=0;entryY=0.5;entryDx=0;entryDy=0;" parent="1" source="TBtlL103MgdBufVst8w7-43" target="TBtlL103MgdBufVst8w7-44" edge="1">
          <mxGeometry width="50" height="50" relative="1" as="geometry">
            <mxPoint x="475" y="265" as="sourcePoint" />
            <mxPoint x="525" y="215" as="targetPoint" />
          </mxGeometry>
        </mxCell>
        <mxCell id="IurXogEJWfI44ogbA8ff-1" value="Внести информацию&lt;br&gt;о заказе" style="ellipse;whiteSpace=wrap;html=1;" vertex="1" parent="1">
          <mxGeometry x="430" y="475" width="120" height="50" as="geometry" />
        </mxCell>
        <mxCell id="IurXogEJWfI44ogbA8ff-2" value="Внести информацию&lt;br&gt;о поставке" style="ellipse;whiteSpace=wrap;html=1;" vertex="1" parent="1">
          <mxGeometry x="430" y="620" width="120" height="50" as="geometry" />
        </mxCell>
        <mxCell id="IurXogEJWfI44ogbA8ff-3" value="" style="endArrow=none;html=1;rounded=0;exitX=1;exitY=0.5;exitDx=0;exitDy=0;entryX=0;entryY=0.5;entryDx=0;entryDy=0;" edge="1" parent="1" source="TBtlL103MgdBufVst8w7-40" target="IurXogEJWfI44ogbA8ff-2">
          <mxGeometry width="50" height="50" relative="1" as="geometry">
            <mxPoint x="390" y="560" as="sourcePoint" />
            <mxPoint x="440" y="510" as="targetPoint" />
          </mxGeometry>
        </mxCell>
        <mxCell id="IurXogEJWfI44ogbA8ff-4" value="" style="endArrow=none;html=1;rounded=0;exitX=1;exitY=0.5;exitDx=0;exitDy=0;entryX=0;entryY=0.5;entryDx=0;entryDy=0;" edge="1" parent="1">
          <mxGeometry width="50" height="50" relative="1" as="geometry">
            <mxPoint x="400" y="499.78999999999996" as="sourcePoint" />
            <mxPoint x="430" y="499.78999999999996" as="targetPoint" />
          </mxGeometry>
        </mxCell>
      </root>
    </mxGraphModel>
  </diagram>
</mxfile>
